<?xml version="1.0" encoding="utf-8"?>
<!-- Generator: Adobe Illustrator 16.0.0, SVG Export Plug-In . SVG Version: 6.00 Build 0)  -->
<!DOCTYPE svg PUBLIC "-//W3C//DTD SVG 1.1//EN" "http://www.w3.org/Graphics/SVG/1.1/DTD/svg11.dtd">
<svg version="1.1" id="Layer_1" xmlns="http://www.w3.org/2000/svg" xmlns:xlink="http://www.w3.org/1999/xlink" x="0px" y="0px"
	 width="160px" height="93px" viewBox="0 0 160 93" enable-background="new 0 0 160 93" xml:space="preserve">
<g>
	<path d="M160,88.4c0,2.5-2.1,4.6-4.6,4.6H4.6C2.1,93,0,90.9,0,88.4V51.6C0,49.1,2.1,47,4.6,47h150.8c2.5,0,4.6,2.1,4.6,4.6V88.4
		L160,88.4z"/>
	<rect x="155.516" y="47" width="4.484" height="4.484"/>
	<g>
		<g>
			<path fill="#FFFFFF" d="M35.1,69.7c0-3.9,3.2-5.8,3.3-5.9c-1.8-2.7-4.6-3-5.6-3c-2.4-0.2-4.7,1.4-5.9,1.4c-1.2,0-3.1-1.4-5.1-1.4
				c-2.6,0-5,1.5-6.3,3.8c-2.7,4.7-0.7,11.7,1.9,15.5c1.3,1.9,2.8,4,4.8,3.9s2.7-1.2,5-1.2c2.3,0,3,1.2,5.1,1.2
				c2.1,0,3.4-1.9,4.7-3.8c1.5-2.101,2.1-4.3,2.1-4.4C39.2,75.9,35.2,74.4,35.1,69.7z"/>
			<path fill="#FFFFFF" d="M31.3,58.3c1.1-1.3,1.8-3.1,1.6-4.9c-1.5,0.1-3.4,1.1-4.5,2.3c-1,1.1-1.8,3-1.6,4.7
				C28.4,60.6,30.2,59.6,31.3,58.3z"/>
		</g>
	</g>
	<g>
		<path fill="#FFFFFF" d="M63.4,83.9h-2.7l-1.5-4.7H54l-1.4,4.7h-2.7l5.1-16h3.2L63.4,83.9z M58.7,77.2L57.4,73
			c-0.1-0.4-0.4-1.4-0.8-3l0,0c-0.2,0.7-0.4,1.7-0.8,3l-1.3,4.2H58.7z"/>
		<path fill="#FFFFFF" d="M76.6,77.9c0,2-0.5,3.5-1.6,4.699c-0.9,1-2.1,1.5-3.5,1.5c-1.5,0-2.6-0.5-3.3-1.6l0,0v6.1h-2.6V76.1
			c0-1.199,0-2.5-0.1-3.8h2.3l0.1,1.8l0,0c0.9-1.399,2.2-2.1,3.9-2.1c1.4,0,2.5,0.5,3.4,1.6C76.2,74.8,76.6,76.2,76.6,77.9z M74,78
			c0-1.1-0.3-2.1-0.8-2.8C72.6,74.4,71.9,74.1,71,74.1c-0.6,0-1.2,0.2-1.7,0.601c-0.5,0.399-0.9,1-1,1.7c-0.1,0.3-0.1,0.6-0.1,0.8
			V79.1c0,0.801,0.3,1.5,0.8,2.101c0.5,0.6,1.2,0.899,2,0.899c1,0,1.7-0.399,2.3-1.1C73.8,80.2,74,79.3,74,78z"/>
		<path fill="#FFFFFF" d="M89.9,77.9c0,2-0.5,3.5-1.601,4.699c-0.899,1-2.1,1.5-3.5,1.5c-1.5,0-2.6-0.5-3.3-1.6l0,0v6.1h-2.6V76.1
			c0-1.199,0-2.5-0.1-3.8H81l0.1,1.8l0,0C82,72.7,83.2,72,85,72c1.4,0,2.5,0.5,3.4,1.6C89.4,74.8,89.9,76.2,89.9,77.9z M87.3,78
			c0-1.1-0.3-2.1-0.8-2.8c-0.6-0.8-1.3-1.101-2.2-1.101c-0.6,0-1.2,0.2-1.7,0.601c-0.5,0.399-0.8,1-1,1.7c-0.1,0.3-0.1,0.6-0.1,0.8
			V79.1c0,0.801,0.3,1.5,0.8,2.101c0.5,0.6,1.2,0.899,2,0.899c1,0,1.7-0.399,2.3-1.1C87,80.2,87.3,79.3,87.3,78z"/>
		<path fill="#FFFFFF" d="M104.7,79.4c0,1.399-0.5,2.5-1.4,3.3c-1,0.899-2.5,1.399-4.399,1.399c-1.7,0-3.101-0.3-4.101-1L95.4,81
			c1.1,0.7,2.399,1,3.699,1c1,0,1.7-0.2,2.301-0.7c0.5-0.399,0.8-1,0.8-1.8c0-0.7-0.2-1.2-0.7-1.6c-0.4-0.4-1.2-0.9-2.2-1.2
			c-2.8-1-4.2-2.601-4.2-4.601c0-1.3,0.5-2.399,1.5-3.2c1-0.8,2.301-1.3,3.9-1.3c1.5,0,2.7,0.3,3.6,0.8l-0.6,2.1
			c-0.9-0.5-1.9-0.7-3.1-0.7c-0.9,0-1.601,0.2-2.101,0.7c-0.399,0.4-0.6,0.9-0.6,1.5s0.2,1.2,0.7,1.6C98.8,74,99.6,74.4,100.7,74.8
			c1.399,0.601,2.399,1.2,3,1.9C104.4,77.3,104.7,78.3,104.7,79.4z"/>
		<path fill="#FFFFFF" d="M113.2,74.2h-2.8v5.6c0,1.4,0.5,2.101,1.5,2.101c0.5,0,0.8,0,1.1-0.101l0.1,1.9c-0.5,0.2-1.199,0.3-2,0.3
			c-1,0-1.8-0.3-2.399-0.9c-0.601-0.6-0.9-1.699-0.9-3.1v-5.8h-1.7v-1.9h1.7v-2.1l2.5-0.8v2.9h2.8L113.2,74.2z"/>
		<path fill="#FFFFFF" d="M125.9,78c0,1.8-0.5,3.2-1.5,4.4c-1.101,1.199-2.5,1.8-4.2,1.8s-3-0.601-4-1.7s-1.5-2.5-1.5-4.3
			s0.5-3.3,1.6-4.4c1-1.1,2.4-1.7,4.2-1.7c1.7,0,3.1,0.601,4.1,1.7C125.5,74.8,125.9,76.3,125.9,78z M123.3,78.1
			c0-1.1-0.2-2-0.7-2.699c-0.5-0.9-1.3-1.4-2.3-1.4s-1.8,0.5-2.3,1.4c-0.5,0.8-0.7,1.699-0.7,2.8c0,1.1,0.2,2,0.7,2.7
			c0.6,0.899,1.3,1.399,2.3,1.399s1.7-0.5,2.3-1.399C123,80.1,123.3,79.1,123.3,78.1z"/>
		<path fill="#FFFFFF" d="M134.3,74.6c-0.3,0-0.5-0.1-0.8-0.1c-0.9,0-1.6,0.3-2.1,1c-0.4,0.6-0.601,1.4-0.601,2.3V83.9h-2.6V76
			c0-1.3,0-2.5-0.101-3.6h2.2L130.4,74.6h0.1c0.3-0.8,0.7-1.399,1.3-1.8c0.601-0.399,1.2-0.6,1.9-0.6c0.2,0,0.5,0,0.6,0V74.6z"/>
		<path fill="#FFFFFF" d="M145.7,77.5c0,0.5,0,0.8-0.101,1.2H137.9c0,1.1,0.399,2,1.1,2.6c0.6,0.5,1.5,0.8,2.5,0.8
			c1.1,0,2.2-0.199,3.1-0.5L145,83.4c-1.1,0.5-2.4,0.699-3.9,0.699c-1.8,0-3.199-0.5-4.199-1.6s-1.5-2.5-1.5-4.2s0.5-3.2,1.399-4.3
			c1-1.2,2.3-1.9,4-1.9s2.9,0.601,3.8,1.9C145.4,74.9,145.7,76.1,145.7,77.5z M143.3,76.9c0-0.801-0.2-1.4-0.5-2
			c-0.399-0.7-1.1-1.101-2-1.101c-0.8,0-1.5,0.3-2,1c-0.399,0.601-0.7,1.2-0.8,2L143.3,76.9L143.3,76.9z"/>
	</g>
	<g>
		<g>
			<path fill="#FFFFFF" d="M51.1,54.7c0.3-0.2,0.6-0.3,0.9-0.4c0.3-0.1,0.8-0.2,1.2-0.2c0.8,0,1.3,0.2,1.8,0.5
				c0.4,0.4,0.7,0.8,0.7,1.4c0,0.5-0.1,0.9-0.4,1.2c-0.3,0.3-0.7,0.5-1.1,0.7l0,0c0.2,0,0.5,0.1,0.7,0.2c0.2,0.1,0.4,0.2,0.6,0.4
				s0.3,0.4,0.4,0.6c0.1,0.2,0.1,0.5,0.1,0.7c0,0.4-0.1,0.8-0.3,1.1c-0.2,0.3-0.4,0.5-0.7,0.7c-0.3,0.2-0.6,0.3-0.9,0.4
				c-0.3,0.1-0.7,0.1-1,0.1c-0.4,0-0.7,0-1.1-0.1s-0.7-0.2-1-0.4l0.3-1c0.2,0.1,0.5,0.2,0.8,0.3c0.3,0.1,0.6,0.1,1,0.1
				c0.5,0,1-0.1,1.2-0.4c0.3-0.2,0.4-0.6,0.4-1c0-0.3-0.1-0.5-0.2-0.7c-0.1-0.2-0.3-0.3-0.5-0.4s-0.4-0.2-0.6-0.2
				c-0.2,0-0.5-0.1-0.7-0.1h-0.5v-1h0.5c0.2,0,0.5,0,0.7-0.1c0.2-0.1,0.4-0.1,0.5-0.3c0.1-0.2,0.3-0.2,0.4-0.4
				c0.1-0.2,0.1-0.3,0.1-0.5c0-0.4-0.1-0.6-0.4-0.8c-0.2-0.2-0.6-0.3-1-0.3c-0.3,0-0.6,0-0.9,0.1c-0.3,0.1-0.5,0.2-0.8,0.3
				L51.1,54.7z"/>
			<path fill="#FFFFFF" d="M61.1,62.1L61,61.4l0,0c-0.4,0.5-0.9,0.8-1.7,0.8c-0.3,0-0.5,0-0.7-0.1c-0.2-0.1-0.4-0.2-0.5-0.4
				c-0.2-0.1-0.3-0.3-0.4-0.5c-0.1-0.2-0.1-0.4-0.1-0.7c0-0.7,0.3-1.2,0.9-1.6s1.4-0.5,2.4-0.5v-0.1c0-0.7-0.4-1.1-1.2-1.1
				c-0.6,0-1.1,0.1-1.5,0.4L58,56.8c0.5-0.3,1.2-0.5,1.9-0.5c1.5,0,2.2,0.8,2.2,2.3v2.1c0,0.6,0,1,0.1,1.4H61.1L61.1,62.1z M61,59.3
				c-0.7,0-1.2,0.1-1.6,0.3c-0.4,0.2-0.5,0.5-0.5,0.9c0,0.3,0.1,0.5,0.2,0.7c0.1,0.2,0.4,0.2,0.6,0.2c0.2,0,0.3,0,0.5-0.1
				c0.1-0.1,0.3-0.1,0.4-0.2s0.2-0.2,0.3-0.4c0.1-0.1,0.1-0.3,0.1-0.5V59.3z"/>
			<path fill="#FFFFFF" d="M68.2,56.4v1h-2.4V62h-1.3v-5.7h3.7V56.4z"/>
			<path fill="#FFFFFF" d="M75.5,59.2c0,0.5-0.1,0.9-0.2,1.2c-0.1,0.4-0.3,0.7-0.5,1c-0.2,0.3-0.5,0.5-0.8,0.6s-0.6,0.2-1,0.2
				c-0.7,0-1.3-0.3-1.6-0.8l0,0v3H70v-6.1c0-0.3,0-0.6,0-0.9c0-0.3,0-0.6,0-1h1.1l0.1,0.9l0,0c0.4-0.7,1.1-1,1.9-1
				c0.3,0,0.6,0.1,0.9,0.2s0.5,0.3,0.7,0.6c0.2,0.3,0.4,0.6,0.5,0.9C75.3,58.3,75.5,58.8,75.5,59.2z M74.2,59.2c0-0.3,0-0.5-0.1-0.8
				c-0.1-0.2-0.2-0.4-0.3-0.6c-0.1-0.2-0.3-0.3-0.5-0.4c-0.2-0.1-0.4-0.1-0.6-0.1c-0.2,0-0.4,0-0.5,0.1c-0.2,0.1-0.3,0.2-0.4,0.3
				c-0.1,0.1-0.2,0.3-0.3,0.5c-0.1,0.2-0.1,0.4-0.1,0.6v0.9c0,0.2,0,0.4,0.1,0.6c0.1,0.2,0.2,0.3,0.3,0.5c0.1,0.1,0.3,0.2,0.4,0.3
				c0.2,0.1,0.4,0.1,0.6,0.1c0.5,0,0.8-0.2,1.1-0.5C74.2,60.4,74.2,59.8,74.2,59.2z"/>
			<path fill="#FFFFFF" d="M82.2,56.4l-1.4,3.9c-0.3,0.9-0.7,1.7-1,2.3c-0.3,0.6-0.6,1-0.9,1.3c-0.4,0.4-0.9,0.6-1.4,0.7l-0.3-1.1
				c0.3-0.1,0.6-0.3,0.9-0.5c0.3-0.2,0.5-0.6,0.7-0.9c0.1-0.1,0.1-0.2,0.1-0.3c0,0,0-0.1-0.1-0.3l-2.1-5.2h1.4l1.1,3.2
				c0.1,0.1,0.1,0.3,0.2,0.5s0.1,0.4,0.2,0.6l0,0c0-0.1,0.1-0.3,0.1-0.5c0-0.2,0.1-0.4,0.2-0.7l1-3.2L82.2,56.4L82.2,56.4z"/>
			<path fill="#FFFFFF" d="M84.4,58.8H85c0.4,0,0.8-0.1,1-0.2c0.2-0.2,0.3-0.3,0.3-0.6c0-0.2-0.1-0.4-0.3-0.6
				c-0.2-0.1-0.5-0.2-0.8-0.2c-0.2,0-0.5,0-0.7,0.1c-0.2,0.1-0.4,0.2-0.6,0.3L83.6,56.8c0.301-0.2,0.7-0.3,1-0.4
				c0.301-0.1,0.601-0.1,1-0.1c0.301,0,0.5,0,0.801,0.1c0.3,0.1,0.5,0.1,0.699,0.3c0.2,0.1,0.4,0.3,0.5,0.5
				c0.101,0.2,0.2,0.4,0.2,0.7c0,0.2,0,0.3-0.1,0.5c-0.101,0.1-0.2,0.3-0.3,0.4C87.3,58.9,87.2,59,87,59.1c-0.1,0.1-0.3,0.1-0.4,0.1
				l0,0c0.2,0,0.4,0.1,0.5,0.1c0.2,0.1,0.301,0.2,0.5,0.3C87.7,59.7,87.9,59.8,87.9,60c0.1,0.2,0.1,0.3,0.1,0.5
				c0,0.3-0.1,0.6-0.2,0.8c-0.2,0.2-0.399,0.4-0.6,0.5c-0.3,0.1-0.5,0.2-0.8,0.3c-0.301,0.1-0.601,0.1-0.9,0.1s-0.7,0-1-0.1
				s-0.7-0.2-0.9-0.3L83.9,61c0.199,0.1,0.399,0.2,0.699,0.3c0.301,0.1,0.5,0.1,0.801,0.1c0.399,0,0.8-0.1,1-0.3
				c0.199-0.2,0.3-0.4,0.3-0.6s0-0.3-0.101-0.4c-0.1-0.1-0.199-0.2-0.3-0.3c-0.1-0.1-0.3-0.1-0.5-0.1s-0.399,0-0.6,0H84.6v-0.9H84.4
				z"/>
			<path fill="#FFFFFF" d="M91.1,56.4v2c0,0.5,0,0.9,0,1.2c0,0.4,0,0.8-0.1,1.2l0,0c0.1-0.3,0.3-0.6,0.4-0.9
				c0.1-0.3,0.3-0.6,0.399-0.9l1.4-2.7H95V62h-1.2v-2c0-0.4,0-0.8,0-1.3c0-0.4,0-0.8,0.101-1.3H93.8c-0.1,0.4-0.3,0.7-0.399,0.9
				C93.3,58.6,93.1,58.8,93,59.1c-0.2,0.5-0.5,0.9-0.7,1.4s-0.5,0.9-0.8,1.4h-1.6v-5.7H91.1V56.4z"/>
			<path fill="#FFFFFF" d="M101.6,56.4v1H99.9V62h-1.2v-4.6H97v-1H101.6z"/>
			<path fill="#FFFFFF" d="M108,59c0,0.1,0,0.2,0,0.3c0,0.1,0,0.2,0,0.3h-3.8c0,0.5,0.2,1,0.5,1.2c0.3,0.3,0.7,0.4,1.3,0.4
				s1.1-0.1,1.5-0.3l0.2,0.9c-0.5,0.2-1.2,0.4-1.9,0.4c-0.399,0-0.8-0.1-1.2-0.2c-0.3-0.1-0.6-0.3-0.899-0.6
				c-0.2-0.2-0.4-0.5-0.601-0.9c-0.1-0.4-0.199-0.7-0.199-1.2s0.1-0.8,0.199-1.2c0.101-0.4,0.301-0.7,0.5-1
				c0.2-0.3,0.5-0.5,0.801-0.6c0.3-0.2,0.699-0.2,1.1-0.2s0.7,0.1,1,0.2s0.5,0.3,0.7,0.5s0.399,0.5,0.5,0.9
				C108,58.2,108,58.6,108,59z M106.8,58.7c0-0.4-0.1-0.8-0.3-1.1c-0.2-0.3-0.5-0.4-0.9-0.4c-0.399,0-0.699,0.1-0.899,0.4
				c-0.2,0.3-0.4,0.6-0.4,1.1H106.8z"/>
			<path fill="#FFFFFF" d="M113.1,56.5c0.2,0,0.5-0.1,0.9-0.1c0.3,0,0.7,0,1.1,0c0.2,0,0.5,0,0.801,0c0.3,0,0.6,0.1,0.8,0.2
				c0.3,0.1,0.5,0.2,0.7,0.4c0.199,0.2,0.3,0.5,0.3,0.8c0,0.2,0,0.3-0.101,0.5c-0.1,0.1-0.1,0.3-0.3,0.4c-0.2,0.1-0.2,0.2-0.399,0.3
				c-0.101,0.1-0.301,0.1-0.4,0.1l0,0c0.4,0.1,0.7,0.2,1,0.4s0.4,0.5,0.4,0.9s-0.101,0.7-0.301,0.9c-0.199,0.2-0.5,0.4-0.8,0.5
				c-0.3,0.1-0.7,0.2-1,0.2c-0.399,0-0.7,0-0.899,0c-0.301,0-0.601,0-0.9,0s-0.5,0-0.8,0v-5.5H113.1z M114.3,58.7h0.601
				c0.199,0,0.399,0,0.6,0s0.3-0.1,0.5-0.1c0.1-0.1,0.2-0.1,0.3-0.2c0.101-0.1,0.101-0.2,0.101-0.4c0-0.3-0.101-0.4-0.301-0.6
				c-0.199-0.1-0.5-0.2-1-0.2c-0.1,0-0.199,0-0.3,0c-0.1,0-0.2,0-0.399,0L114.3,58.7z M114.3,61.2c0.2,0,0.3,0,0.4,0
				c0.1,0,0.2,0,0.399,0c0.2,0,0.301,0,0.5,0c0.2,0,0.301-0.1,0.5-0.1c0.101-0.1,0.301-0.2,0.4-0.3c0.1-0.1,0.1-0.3,0.1-0.4
				c0-0.3-0.1-0.5-0.399-0.7c-0.3-0.1-0.7-0.2-1.2-0.2h-0.7V61.2L114.3,61.2z"/>
		</g>
	</g>
	<rect y="47" width="4.484" height="4.484"/>
	<rect y="88.516" width="4.484" height="4.484"/>
</g>
<g>
	<path d="M160,41.4c0,2.5-2.1,4.6-4.6,4.6H4.6C2.1,46,0,43.9,0,41.4V4.6C0,2.1,2.1,0,4.6,0h150.8c2.5,0,4.6,2.1,4.6,4.6V41.4
		L160,41.4z"/>
	<rect x="155.516" width="4.484" height="4.484"/>
	<rect x="155.516" y="41.516" width="4.484" height="4.484"/>
	<rect width="4.484" height="4.484"/>
</g>
<path fill="#FFFFFF" d="M80.8,25.1c-2.8,0-5.1,2.1-5.1,5.1c0,2.9,2.3,5.1,5.1,5.1s5.101-2.2,5.101-5.1
	C85.9,27.2,83.6,25.1,80.8,25.1z M80.8,33.3c-1.5,0-2.9-1.3-2.9-3.1c0-1.8,1.3-3.1,2.9-3.1c1.5,0,2.9,1.3,2.9,3.1
	C83.6,32,82.3,33.3,80.8,33.3z M69.6,25.1c-2.8,0-5.1,2.1-5.1,5.1c0,2.9,2.3,5.1,5.1,5.1c2.8,0,5.1-2.2,5.1-5.1
	C74.7,27.2,72.4,25.1,69.6,25.1z M69.6,33.3c-1.5,0-2.9-1.3-2.9-3.1c0-1.8,1.3-3.1,2.9-3.1c1.5,0,2.9,1.3,2.9,3.1
	C72.5,32,71.1,33.3,69.6,33.3z M56.3,26.7v2.2h5.2c-0.2,1.2-0.6,2.1-1.2,2.7c-0.8,0.8-1.9,1.6-4,1.6c-3.2,0-5.7-2.6-5.7-5.8
	c0-3.2,2.5-5.8,5.7-5.8c1.7,0,3,0.7,3.9,1.5l1.5-1.5c-1.3-1.2-3-2.2-5.4-2.2c-4.4,0-8,3.6-8,7.9c0,4.4,3.7,7.9,8,7.9
	c2.4,0,4.1-0.8,5.5-2.2c1.4-1.4,1.9-3.4,1.9-5.1c0-0.5,0-1-0.1-1.4h-7.3V26.7z M110.6,28.3c-0.399-1.1-1.699-3.2-4.399-3.2
	c-2.601,0-4.8,2.1-4.8,5.1c0,2.9,2.199,5.1,5.1,5.1c2.3,0,3.7-1.4,4.3-2.3l-1.7-1.2c-0.6,0.8-1.399,1.4-2.5,1.4
	c-1.1,0-2-0.5-2.5-1.5l6.801-2.8L110.6,28.3z M103.7,30c-0.101-2,1.5-3,2.7-3c0.899,0,1.6,0.4,1.899,1.1L103.7,30z M98.1,35h2.2V20
	h-2.2V35z M94.5,26.2L94.5,26.2c-0.6-0.6-1.5-1.1-2.8-1.1c-2.601,0-4.9,2.2-4.9,5.1c0,2.9,2.3,5.1,4.9,5.1c1.2,0,2.2-0.5,2.7-1.2
	h0.1v0.7c0,1.9-1,3-2.7,3c-1.399,0-2.2-1-2.6-1.8l-2,0.8c0.6,1.4,2,3,4.5,3c2.6,0,4.899-1.5,4.899-5.3v-9.1h-2.1V26.2z M91.9,33.3
	c-1.5,0-2.801-1.3-2.801-3.1c0-1.8,1.301-3.1,2.801-3.1s2.699,1.3,2.699,3.1C94.6,32,93.4,33.3,91.9,33.3z M121.1,20H115.7v15h2.2
	v-5.7h3.1c2.5,0,4.9-1.8,4.9-4.7S123.6,20,121.1,20z M121.2,27.2H118v-5.1h3.2c1.7,0,2.6,1.4,2.6,2.6
	C123.8,25.8,122.9,27.2,121.2,27.2z M135,25.1c-1.6,0-3.3,0.7-4,2.3l2,0.8c0.4-0.8,1.2-1.1,2-1.1c1.2,0,2.3,0.7,2.4,1.9v0.2
	c-0.4-0.2-1.301-0.6-2.301-0.6c-2.1,0-4.3,1.2-4.3,3.4c0,2,1.8,3.3,3.7,3.3c1.5,0,2.3-0.7,2.9-1.5h0.1V35h2.2v-5.7
	C139.6,26.6,137.6,25.1,135,25.1z M134.8,33.3c-0.7,0-1.8-0.4-1.8-1.3c0-1.2,1.3-1.6,2.4-1.6c1,0,1.399,0.2,2,0.5
	C137.3,32.3,136.1,33.3,134.8,33.3z M147.5,25.4l-2.6,6.5H144.8l-2.7-6.5H139.7l4,9.1l-2.3,5h2.3l6.2-14.1H147.5z M127.3,35h2.2V20
	h-2.2V35z"/>
<g>
	
		<linearGradient id="SVGID_1_" gradientUnits="userSpaceOnUse" x1="436.0352" y1="172.2559" x2="415.9193" y2="192.3718" gradientTransform="matrix(1 0 0 1 -410.7793 -162.7207)">
		<stop  offset="0" style="stop-color:#00A0FF"/>
		<stop  offset="0.0066" style="stop-color:#00A1FF"/>
		<stop  offset="0.2601" style="stop-color:#00BEFF"/>
		<stop  offset="0.5122" style="stop-color:#00D2FF"/>
		<stop  offset="0.7604" style="stop-color:#00DFFF"/>
		<stop  offset="1" style="stop-color:#00E3FF"/>
	</linearGradient>
	<path fill="url(#SVGID_1_)" d="M11.6,8.1C11.2,8.4,11,9,11,9.8v26.5c0,0.7,0.2,1.3,0.6,1.7l0.1,0.1l14.9-14.8V23v-0.2L11.6,8.1
		L11.6,8.1z"/>
	
		<linearGradient id="SVGID_2_" gradientUnits="userSpaceOnUse" x1="450.4014" y1="185.7197" x2="421.3797" y2="185.7197" gradientTransform="matrix(1 0 0 1 -410.7793 -162.7207)">
		<stop  offset="0" style="stop-color:#FFE000"/>
		<stop  offset="0.4087" style="stop-color:#FFBD00"/>
		<stop  offset="0.7754" style="stop-color:#FFA500"/>
		<stop  offset="1" style="stop-color:#FF9C00"/>
	</linearGradient>
	<path fill="url(#SVGID_2_)" d="M31.5,28.1l-5-4.9V23v-0.2l5-4.9l0.1,0.1l5.9,3.3c1.7,1,1.7,2.5,0,3.5l-5.9,3.3H31.5z"/>
	
		<linearGradient id="SVGID_3_" gradientUnits="userSpaceOnUse" x1="439.6152" y1="188.4863" x2="412.3313" y2="215.7702" gradientTransform="matrix(1 0 0 1 -410.7793 -162.7207)">
		<stop  offset="0" style="stop-color:#FF3A44"/>
		<stop  offset="1" style="stop-color:#C31162"/>
	</linearGradient>
	<path fill="url(#SVGID_3_)" d="M31.6,28.1L26.5,23L11.6,37.9c0.6,0.6,1.5,0.7,2.5,0.1L31.6,28.1"/>
	
		<linearGradient id="SVGID_4_" gradientUnits="userSpaceOnUse" x1="418.5752" y1="161.9658" x2="430.7589" y2="174.1494" gradientTransform="matrix(1 0 0 1 -410.7793 -162.7207)">
		<stop  offset="0" style="stop-color:#32A071"/>
		<stop  offset="0.0685" style="stop-color:#2DA771"/>
		<stop  offset="0.4762" style="stop-color:#15CF74"/>
		<stop  offset="0.8009" style="stop-color:#06E775"/>
		<stop  offset="1" style="stop-color:#00F076"/>
	</linearGradient>
	<path fill="url(#SVGID_4_)" d="M31.6,17.9L14,8c-1-0.6-1.9-0.5-2.5,0.1l15,14.9L31.6,17.9z"/>
	<g>
		<path opacity="0.2" enable-background="new    " d="M31.5,27.9L14,37.8c-1,0.6-1.8,0.5-2.4,0l0,0l-0.1,0.1l0,0l0.1,0.1l0,0
			c0.6,0.5,1.4,0.5,2.4,0l17.5-9.9V27.9z"/>
		<path opacity="0.12" enable-background="new    " d="M11.6,37.8c-0.3-0.4-0.6-0.9-0.6-1.7v0.2c0,0.7,0.2,1.3,0.6,1.7V37.8
			L11.6,37.8z"/>
	</g>
	<path opacity="0.12" enable-background="new    " d="M37.4,24.6l-6,3.4l0.1,0.1l5.9-3.3c0.8-0.5,1.3-1.1,1.3-1.7l0,0
		C38.6,23.6,38.2,24.1,37.4,24.6z"/>
	<path opacity="0.25" fill="#FFFFFF" enable-background="new    " d="M14,8.2l23.4,13.3c0.8,0.4,1.2,1,1.3,1.6l0,0
		c0-0.6-0.4-1.3-1.3-1.7L14,8c-1.7-1-3-0.2-3,1.8V10C11,8,12.4,7.2,14,8.2z"/>
</g>
<g>
	<path fill="#FFFFFF" stroke="#FFFFFF" stroke-width="0.2" stroke-miterlimit="10" d="M49.6,16.1h-0.9v-2.4h0.7
		c0.6-0.5,0.9-1.5,0.9-2.8V7.4h4.8v6.3h0.8v2.4H55v-1.5h-5.5v1.5H49.6z M51.2,11c0,1.1-0.2,2.1-0.7,2.8h3.6V8.3h-3V11H51.2z"/>
	<path fill="#FFFFFF" stroke="#FFFFFF" stroke-width="0.2" stroke-miterlimit="10" d="M63.1,13.7c-0.7,0.7-1.6,1.1-2.6,1.1
		c-1.1,0-1.9-0.4-2.6-1.1c-0.7-0.7-1.1-1.6-1.1-2.7s0.4-1.9,1.1-2.7c0.7-0.7,1.6-1.1,2.6-1.1s1.9,0.4,2.6,1.1
		c0.7,0.7,1.1,1.6,1.1,2.7S63.8,13,63.1,13.7z M58.5,13.1c0.5,0.5,1.2,0.8,2,0.8s1.4-0.3,2-0.8c0.5-0.5,0.8-1.2,0.8-2.1
		c0-0.8-0.3-1.5-0.8-2.1c-0.5-0.5-1.2-0.8-2-0.8s-1.4,0.3-2,0.8c-0.5,0.5-0.8,1.2-0.8,2.1S58,12.5,58.5,13.1z"/>
	<path fill="#FFFFFF" stroke="#FFFFFF" stroke-width="0.2" stroke-miterlimit="10" d="M68.8,14.8c-1.1,0-1.9-0.4-2.7-1.1
		C65.4,13,65,12.1,65,11s0.4-2,1.1-2.7c0.7-0.7,1.6-1.1,2.7-1.1c1.1,0,2,0.4,2.6,1.2L70.8,9c-0.5-0.6-1.2-0.9-2-0.9
		c-0.8,0-1.4,0.3-2,0.8C66.3,9.5,66,10.2,66,11c0,0.9,0.3,1.5,0.8,2.1c0.5,0.5,1.2,0.8,2,0.8c0.9,0,1.6-0.3,2.2-1l0.6,0.6
		c-0.3,0.4-0.7,0.7-1.2,0.9C69.9,14.7,69.4,14.8,68.8,14.8z"/>
	<path fill="#FFFFFF" stroke="#FFFFFF" stroke-width="0.2" stroke-miterlimit="10" d="M75.4,14.6h-0.9V8.3h-2V7.4h4.9v0.9h-2V14.6z"
		/>
	<path fill="#FFFFFF" stroke="#FFFFFF" stroke-width="0.2" stroke-miterlimit="10" d="M83.8,7.4l-2.7,6.1
		c-0.399,0.9-0.899,1.3-1.7,1.3c-0.2,0-0.5-0.1-0.7-0.2l0.2-0.9c0.2,0.1,0.3,0.1,0.5,0.1c0.2,0,0.4,0,0.5-0.1
		c0.1-0.1,0.2-0.2,0.3-0.5l0.3-0.6L78,7.4h1.1l1.8,4.1l0,0L82.6,7.4H83.8z"/>
	<path fill="#FFFFFF" stroke="#FFFFFF" stroke-width="0.2" stroke-miterlimit="10" d="M84.8,14.6V7.4H90v7.2h-0.9V8.3H85.7v6.3H84.8
		z"/>
	<path fill="#FFFFFF" stroke="#FFFFFF" stroke-width="0.2" stroke-miterlimit="10" d="M91.7,14.6V7.4H92.6v3.1H96.2V7.4H97.1v7.2
		H96.2v-3.2H92.6v3.2H91.7z"/>
	<path fill="#FFFFFF" stroke="#FFFFFF" stroke-width="0.2" stroke-miterlimit="10" d="M104.7,13.7c-0.7,0.7-1.601,1.1-2.601,1.1
		c-1.1,0-1.899-0.4-2.6-1.1c-0.7-0.7-1.1-1.6-1.1-2.7s0.399-1.9,1.1-2.7c0.7-0.7,1.6-1.1,2.6-1.1s1.9,0.4,2.601,1.1
		c0.7,0.7,1.1,1.6,1.1,2.7C105.7,12.1,105.4,13,104.7,13.7z M100.1,13.1c0.5,0.5,1.2,0.8,2,0.8c0.801,0,1.4-0.3,2-0.8
		c0.5-0.5,0.801-1.2,0.801-2.1c0-0.8-0.301-1.5-0.801-2.1c-0.5-0.5-1.199-0.8-2-0.8c-0.8,0-1.399,0.3-2,0.8
		c-0.5,0.5-0.8,1.2-0.8,2.1S99.5,12.5,100.1,13.1z"/>
	<path fill="#FFFFFF" stroke="#FFFFFF" stroke-width="0.2" stroke-miterlimit="10" d="M109.5,14.6V7.4h2.6
		c0.601,0,1.101,0.2,1.5,0.6c0.4,0.4,0.601,0.8,0.601,1.4c0,0.3-0.101,0.6-0.3,0.9c-0.2,0.3-0.4,0.5-0.7,0.6l0,0
		c0.399,0.1,0.6,0.3,0.899,0.6c0.2,0.3,0.301,0.6,0.301,1c0,0.6-0.2,1.1-0.601,1.5c-0.399,0.4-0.899,0.6-1.5,0.6H109.5z M110.4,10.5
		h1.699c0.301,0,0.601-0.1,0.801-0.3c0.199-0.2,0.3-0.5,0.3-0.8c0-0.3-0.101-0.5-0.3-0.8c-0.2-0.2-0.5-0.3-0.801-0.3H110.4V10.5z
		 M110.4,13.7h1.899c0.4,0,0.601-0.1,0.9-0.4c0.2-0.2,0.3-0.5,0.3-0.8s-0.1-0.6-0.3-0.8c-0.2-0.2-0.5-0.4-0.9-0.4h-1.8v2.4H110.4z"
		/>
</g>
<rect y="47" fill="#F0F5FF" width="0.5" height="46"/>
<rect x="159.5" y="0" fill="#F0F5FF" width="0.5" height="46"/>
</svg>
