<?xml version="1.0" encoding="UTF-8"?>
<!DOCTYPE svg PUBLIC "-//W3C//DTD SVG 1.1//EN" "http://www.w3.org/Graphics/SVG/1.1/DTD/svg11.dtd">
<!-- Creator: CorelDRAW -->
<svg xmlns="http://www.w3.org/2000/svg" xml:space="preserve" width="1919px" height="508px" style="shape-rendering:geometricPrecision; text-rendering:geometricPrecision; image-rendering:optimizeQuality; fill-rule:evenodd; clip-rule:evenodd"
viewBox="0 0 1919 507.971"
 xmlns:xlink="http://www.w3.org/1999/xlink">
 <defs>
  <style type="text/css">
   <![CDATA[
    .str1 {stroke:#CCDFEC;stroke-width:2.82206}
    .str0 {stroke:#CDEBF6;stroke-width:2.82206}
    .str2 {stroke:#F5F3E4;stroke-width:2.82206}
    .str4 {stroke:#F9DFB3;stroke-width:2.82206}
    .str3 {stroke:#FDEFC7;stroke-width:2.82206}
    .str5 {stroke:#FEF5DF;stroke-width:2.82206}
    .fil2 {fill:none}
    .fil1 {fill:#CDEBF6}
    .fil0 {fill:#F8FBFD}
   ]]>
  </style>
 </defs>
 <g id="Слой_x0020_1">
  <metadata id="CorelCorpID_0Corel-Layer"/>
  <g id="_78511360">
   <path id="_259041424" class="fil0" d="M0.000282206 0l1918.01 0 0.98631 388.648c-128.988,70.4936 -177.978,125.871 -313.774,118.699 -264.047,-13.9449 -440.616,-245.009 -551.138,-251.473 -217.072,-12.6947 -389.155,162.054 -565.642,161.69 -192.969,-0.397346 -454.058,-141.322 -488.445,-164.357l0 -253.207z"/>
   <path id="_260659192" class="fil1" d="M0.000282206 0l1918.01 0 0.98631 477.85c-92.4876,-123.947 -292.412,-18.064 -574.209,-113.436 -250.853,-84.8985 -352.201,-133.668 -466.387,-131.943 -190.229,2.87286 -463.055,169.724 -595.149,171.062 -105.167,1.06505 -248.867,-127.29 -283.254,-150.325l0 -253.207z"/>
   <path id="_78457840" class="fil0" d="M0.000282206 2.95244l1918.01 -0.00338647 0 277.789c-436.058,185.517 -1011.97,-126.155 -1212.19,-123.13 -190.23,2.87342 -428.152,207.983 -560.246,206.524 -81.8987,-0.905034 -111.192,-24.3894 -145.58,-47.4244l0 -313.754z"/>
   <path id="_261449176" class="fil2 str0" d="M0.000282206 311.274c368.102,-43.3417 440.484,-180.557 761.089,-180.263 323.188,0.296316 392.378,115.314 496.405,121.16 104.016,5.84561 191.246,-79.3755 302.497,-79.7884 88.3152,-0.328205 271.147,87.0066 358.023,90.6239"/>
   <path id="_261448336" class="fil2 str1" d="M0.000282206 225.575c20.3603,-14.7755 111.497,-56.1474 330.613,-4.92506 219.116,51.2223 286.984,66.983 512.887,61.0727 225.903,-5.91024 154.387,9.89329 290.862,11.8205 284.74,4.02115 351.943,-57.1326 452.775,-54.1773 100.832,2.95498 257.191,42.3568 330.876,48.2671"/>
   <path id="_259928816" class="fil2 str0" d="M0.000282206 135.936c139.614,-66.983 408.293,178.689 585.719,181.644 177.426,2.95526 393.617,-101.943 554.46,-94.9595 113.436,4.92477 342.248,142.831 491.557,140.861 149.309,-1.97008 286.277,-43.342 286.277,-43.342"/>
   <path id="_258098696" class="fil2 str2" d="M0.000282206 287.633c222.994,40.3868 389.768,-96.7735 660.262,-86.6708 117.239,4.37899 206.4,27.6624 314.126,28.5533 308.523,2.55114 494.466,-78.8037 614.689,-77.8186 120.223,0.984899 328.937,39.4016 328.937,39.4016"/>
   <path id="_78149312" class="fil2 str3" d="M0.000282206 185.188c50.4161,-24.6261 105.68,-36.4466 186.152,-34.4765 80.4719,1.97008 295.644,91.367 447.928,90.6242 153.898,-0.750668 317.75,-84.7134 496.405,-82.7439 65.9247,0.72668 297.369,68.6996 525.491,69.9382 134.138,0.728091 262.038,-13.7906 262.038,-13.7906"/>
   <path id="_261448616" class="fil2 str4" d="M0.000282206 253.207c86.7317,-54.3785 155.828,-85.7624 329.644,-84.7648 343.217,1.97008 381.03,148.742 514.826,147.757 155.134,-1.1418 292.808,-157.413 437.263,-162.532 83.3806,-2.95498 211.36,106.385 411.085,106.385 122.177,-0.000282206 225.196,-15.7609 225.196,-15.7609"/>
   <path id="_258912040" class="fil2 str5" d="M0.000282206 280.738c111.497,-50.2372 253.223,-83.3662 492.7,-75.4858 239.477,7.8806 490.415,27.2188 609.668,62.6805 119.253,35.4614 218.111,23.5831 306.375,18.7159 88.2636,-4.86749 119.779,54.9751 278.258,53.1921 158.479,-1.78269 231.013,-45.3118 231.013,-45.3118"/>
  </g>
 </g>
</svg>
